HIERARCHY
ROOT root     
{
	OFFSET 0.0000 0.0000 0.0000
	CHANNELS 6 Xposition Yposition Zposition Zrotation Yrotation Xrotation
	JOINT pelvis   
	{
		OFFSET 0.0000 0.0000 0.0000
		CHANNELS 3 Zrotation Yrotation Xrotation
		JOINT thorax   
		{
			OFFSET 0.0000 23.0750 -5.0000
			CHANNELS 3 Zrotation Yrotation Xrotation
			JOINT rclavicle
			{
				OFFSET 0.0000 28.0009 0.0000
				CHANNELS 3 Zrotation Yrotation Xrotation
				JOINT rhumerus 
				{
					OFFSET -18.5725 5.5939 0.0000
					CHANNELS 3 Zrotation Yrotation Xrotation
					JOINT rradius  
					{
						OFFSET -24.8459 0.0000 0.0000
						CHANNELS 3 Zrotation Yrotation Xrotation
						JOINT rhand    
						{
							OFFSET -24.5477 0.0000 0.0000
							CHANNELS 3 Zrotation Yrotation Xrotation
							End Site
							{
								OFFSET -8.1826 0.0000 0.0000
							}
						}
					}
				}
			}
			JOINT lclavicle
			{
				OFFSET 0.0000 28.0009 0.0000
				CHANNELS 3 Zrotation Yrotation Xrotation
				JOINT lhumerus 
				{
					OFFSET 18.5725 5.5939 0.0000
					CHANNELS 3 Zrotation Yrotation Xrotation
					JOINT lradius  
					{
						OFFSET 24.8459 0.0000 0.0000
						CHANNELS 3 Zrotation Yrotation Xrotation
						JOINT lhand    
						{
							OFFSET 24.5477 0.0000 0.0000
							CHANNELS 3 Zrotation Yrotation Xrotation
							End Site
							{
								OFFSET 8.1826 0.0000 0.0000
							}
						}
					}
				}
			}
			JOINT head     
			{
				OFFSET 0.0000 35.2030 0.0000
				CHANNELS 3 Zrotation Yrotation Xrotation
				End Site
				{
					OFFSET 0.0000 11.7343 0.0000
				}
			}
		}
		JOINT rfemur   
		{
			OFFSET -8.2817 0.0000 0.0000
			CHANNELS 3 Zrotation Yrotation Xrotation
			JOINT rtibia   
			{
				OFFSET 0.0000 -43.3627 0.0000
				CHANNELS 3 Zrotation Yrotation Xrotation
				JOINT rfoot    
				{
					OFFSET 0.0000 -38.2947 0.0000
					CHANNELS 3 Zrotation Yrotation Xrotation
					JOINT rtoes    
					{
						OFFSET 0.0000 0.0000 16.6054
						CHANNELS 3 Zrotation Yrotation Xrotation
						End Site
						{
							OFFSET 0.0000 0.0000 5.5351
						}
					}
				}
			}
		}
		JOINT lfemur   
		{
			OFFSET 8.2817 0.0000 0.0000
			CHANNELS 3 Zrotation Yrotation Xrotation
			JOINT ltibia   
			{
				OFFSET 0.0000 -43.3627 0.0000
				CHANNELS 3 Zrotation Yrotation Xrotation
				JOINT lfoot    
				{
					OFFSET 0.0000 -38.2947 0.0000
					CHANNELS 3 Zrotation Yrotation Xrotation
					JOINT ltoes    
					{
						OFFSET 0.0000 0.0000 16.6054
						CHANNELS 3 Zrotation Yrotation Xrotation
						End Site
						{
							OFFSET 0.0000 0.0000 5.5351
						}
					}
				}
			}
		}
	}
}
MOTION
Frames: 23
Frame Time: .0333333
-0.7109 78.153 5.5899 3.30948 45.109 24.9115 0 -0 0 -3.69973 -12.0054 20.9857 21.0396 -11.919 0.000112895 56.9197 -17.0634 6.43588 -7.72857e-07 71.2369 -1.0788e-06 -4.42764 4.10304 -0.1587 -10.4638 10.4517 1.62835e-06 -40.4745 9.28914 6.34955 4.43389e-06 -86.4633 -4.71638e-06 1.61859 5.31444 0.0750993 13.0204 -8.50904 -10.0889 16.9346 -15.9585 -62.0361 -0 -0 43.0395 -2.94172e-05 -20.8899 -4.67467 -178.218 -6.30506e-06 -12.8304 -13.2407 27.5613 -39.0359 -0 -0 57.544 -9.05997e-05 15.1109 -16.4687 -4.37736 -5.279e-05 -44.8115 
-0.2569 78.116 6.0459 3.54953 44.8737 25.0102 0 -0 0 -3.17118 -12.041 20.9533 21.021 -11.8073 4.25105e-05 56.9158 -16.9004 6.05695 -0 71.1381 -0 -4.62324 4.11491 -0.166203 -10.6859 10.4959 -3.37204e-06 -41.0165 9.59549 6.62429 9.82308e-06 -86.4906 -9.8609e-06 1.57442 5.28414 0.0727006 12.7295 -8.69117 -10.3428 16.4563 -15.8357 -61.9808 -0 -0 43.9911 1.36412e-05 -21.059 -5.11334 -178.035 -6.5787e-06 -13.2265 -13.0856 27.4072 -38.2292 -0 -0 57.239 1.27338e-05 15.4249 -16.5147 -4.48462 2.50956e-06 -45.0484 
0.1832 78.092 6.511 3.72232 44.6278 25.0811 0 -0 0 -2.59549 -12.0652 20.9073 21.0056 -11.6758 7.69347e-06 56.897 -16.6963 5.68394 -0 71.0189 -0 -4.81448 4.13768 -0.173998 -10.923 10.5294 3.32845e-06 -41.5887 9.94078 6.87067 9.82308e-06 -86.4906 -9.8609e-06 1.53503 5.25011 0.0704016 12.4174 -8.87606 -10.5727 16.0528 -15.6933 -61.89 -0 -0 44.8451 -2.55936e-05 -21.219 -5.54409 -177.852 2.22823e-06 -13.3436 -12.9096 27.2706 -37.4509 -0 -0 56.9053 6.1656e-06 15.7652 -16.5287 -4.59193 1.98255e-05 -45.2537 
0.6143 78.083 6.9843 3.85307 44.3629 25.1343 0 -0 0 -2.00113 -12.0692 20.8554 21.0066 -11.5305 1.93369e-05 56.8564 -16.4654 5.30723 -1.06983e-06 70.8945 -1.50273e-06 -4.99749 4.15674 -0.181498 -11.152 10.5627 -8.70007e-06 -42.2016 10.2961 7.10544 4.68416e-06 -86.4376 -4.40166e-06 1.5015 5.20803 0.0682994 12.0986 -9.07384 -10.77 15.7101 -15.5494 -61.7605 -0 -0 45.6014 -2.17606e-05 -21.3481 -5.97441 -177.67 4.24688e-06 -13.2977 -12.7308 27.157 -36.6885 -0 -0 56.5409 0.000139846 16.1237 -16.5017 -4.69442 1.64118e-05 -45.4247 
1.0349 78.088 7.4654 3.94857 44.0833 25.1781 0 -0 0 -1.39572 -12.0562 20.7894 21.0234 -11.3764 -2.19021e-05 56.7987 -16.2072 4.93288 -0 70.7671 -0 -5.1728 4.17697 -0.188799 -11.3709 10.5916 -1.69087e-06 -42.8512 10.6668 7.32801 3.22558e-06 -86.3319 -3.43913e-06 1.47234 5.15987 0.0663018 11.7796 -9.28735 -10.9215 15.4177 -15.4017 -61.5823 -0 -0 46.2414 1.79648e-05 -21.4435 -6.39885 -177.494 -1.04707e-05 -13.1402 -12.5555 27.0688 -35.9545 -0 -0 56.1549 -3.06389e-05 16.4893 -16.4228 -4.78385 3.63943e-06 -45.5704 
1.446 78.108 7.9533 4.02305 43.7893 25.2253 0 -0 0 -0.792346 -12.0246 20.7077 21.0557 -11.2196 2.06987e-05 56.729 -15.9243 4.56335 -7.4419e-07 70.6348 -1.0504e-06 -5.34226 4.19641 -0.195897 -11.5741 10.6159 -3.73307e-05 -43.5336 11.0487 7.54145 8.90383e-06 -86.1614 -8.97994e-06 1.44579 5.10612 0.0644993 11.4703 -9.51987 -11.0198 15.1627 -15.2512 -61.3568 -0 -0 46.7632 6.68774e-06 -21.5007 -6.81703 -177.323 -4.1803e-06 -12.9386 -12.3908 27.0087 -35.25 -0 -0 55.7553 0.00017994 16.8467 -16.2793 -4.85213 -4.71773e-05 -45.7024 
1.8498 78.143 8.447 4.09163 43.4807 25.2818 0 -0 0 -0.20708 -11.9761 20.6095 21.1072 -11.0665 -5.29994e-05 56.652 -15.6207 4.19687 -0 70.5027 -0 -5.50742 4.20777 -0.202501 -11.7526 10.6385 1.73873e-05 -44.2509 11.4311 7.75224 7.62026e-06 -85.9273 -7.86881e-06 1.42192 5.04554 0.0627006 11.1792 -9.77708 -11.0616 14.9301 -15.1064 -61.0857 -0 -0 47.1744 3.53092e-05 -21.5148 -7.23099 -177.159 -2.12792e-05 -12.7406 -12.2453 26.9753 -34.5748 -0 -0 55.3492 2.26214e-05 17.1827 -16.0653 -4.89106 -8.19788e-06 -45.8366 
2.2444 78.191 8.9449 4.15913 43.1621 25.3577 0 -0 0 0.355897 -11.9155 20.4896 21.1642 -10.9217 5.15538e-05 56.5784 -15.295 3.84476 -1.03815e-06 70.3596 -7.31804e-07 -5.67364 4.22457 -0.2094 -11.9172 10.6508 -1.40599e-05 -44.9862 11.8334 7.94899 3.30833e-06 -85.6418 -3.56994e-06 1.39709 4.98203 0.0608001 10.913 -10.0538 -11.0436 14.7099 -14.9575 -60.7765 -0 -0 47.4778 -4.88924e-05 -21.4964 -7.63818 -177.003 2.56731e-06 -12.6026 -12.1185 26.9663 -33.9383 -0 -0 54.9483 -0.000119092 17.4807 -15.7721 -4.89235 5.50074e-05 -45.9992 
2.6351 78.253 9.4453 4.24702 42.8298 25.4589 0 -0 0 0.877616 -11.8392 20.3599 21.2389 -10.7912 -8.00604e-05 56.5054 -14.9562 3.49896 -1.03262e-06 70.2356 -7.26221e-07 -5.84007 4.22358 -0.215496 -12.0514 10.6654 4.14582e-06 -45.7455 12.2231 8.14758 2.48998e-06 -85.2905 -2.7036e-06 1.37387 4.91106 0.0588984 10.6786 -10.3585 -10.9758 14.486 -14.8215 -60.4372 -0 -0 47.7054 2.31829e-05 -21.4398 -8.04196 -176.855 -1.35374e-05 -12.5269 -12.0194 26.9756 -33.329 -0 -0 54.554 1.2205e-05 17.7302 -15.3958 -4.85158 -1.31929e-05 -46.2087 
3.0189 78.329 9.9463 4.35086 42.4887 25.5898 0 -0 0 1.36252 -11.7558 20.2103 21.3132 -10.6759 -4.56705e-05 56.4469 -14.5993 3.17351 -0 70.1083 -0 -6.01189 4.22358 -0.221898 -12.1716 10.6708 3.07047e-06 -46.513 12.628 8.33083 6.04842e-06 -84.8927 -6.29706e-06 1.34756 4.83778 0.0568982 10.4777 -10.6816 -10.8628 14.2545 -14.6849 -60.0799 -0 -0 47.8609 3.15946e-05 -21.3609 -8.43597 -176.716 1.14573e-05 -12.5238 -11.9418 26.9963 -32.7593 -0 -0 54.1809 -7.32406e-05 17.9219 -14.9351 -4.76461 6.26953e-05 -46.4968 
3.3991 78.417 10.446 4.48194 42.1376 25.7511 0 -0 0 1.80064 -11.6638 20.0527 21.3923 -10.5789 -1.05219e-05 56.3996 -14.2321 2.8645 -0 70.0022 -0 -6.18552 4.20937 -0.2275 -12.2714 10.6773 -6.01287e-06 -47.2894 13.0249 8.50847 2.96074e-06 -84.4407 -3.26295e-06 1.32091 4.75935 0.0549012 10.3129 -11.0258 -10.7206 14.0058 -14.5565 -59.7129 -0 -0 47.9724 3.47877e-05 -21.2624 -8.81905 -176.586 -5.07411e-06 -12.5716 -11.8874 27.0184 -32.2215 -0 -0 53.8306 -1.3395e-05 18.05 -14.3917 -4.63073 4.37247e-05 -46.8814 
3.7759 78.517 10.942 4.64108 41.7737 25.9444 0 -0 0 2.19252 -11.5658 19.8898 21.4692 -10.5008 6.2553e-05 56.3673 -13.856 2.57593 -0 69.929 -0 -6.3596 4.18019 -0.232299 -12.355 10.6865 -8.60717e-05 -48.0679 13.4144 8.68096 5.631e-06 -83.9449 -5.70717e-06 1.29277 4.6777 0.0527991 10.1838 -11.3863 -10.5639 13.7375 -14.4343 -59.349 -0 -0 48.052 2.63352e-05 -21.1497 -9.18815 -176.465 -1.01278e-05 -12.6494 -11.8527 27.0318 -31.7143 -0 -0 53.5102 -5.88035e-05 18.1137 -13.7687 -4.45165 7.57909e-06 -47.3746 
4.146 78.629 11.433 4.81687 41.402 26.1673 0 -0 0 2.54967 -11.4698 19.7184 21.5362 -10.4378 -6.58869e-05 56.3533 -13.4717 2.3173 -0 69.8784 -0 -6.53191 4.14672 -0.236707 -12.4315 10.6957 -2.77683e-05 -48.8368 13.8083 8.8387 1.23974e-06 -83.4264 -1.3909e-06 1.26104 4.59633 0.0506013 10.0855 -11.7534 -10.4057 13.4567 -14.3096 -58.9968 -0 -0 48.105 7.97722e-05 -21.0391 -9.53359 -176.355 -8.76568e-06 -12.7165 -11.8257 27.0233 -31.2498 -0 -0 53.2314 7.64281e-05 18.1124 -13.0709 -4.23073 1.85398e-05 -47.9812 
4.5085 78.751 11.918 5.00418 41.0261 26.415 0 -0 0 2.878 -11.378 19.5435 21.5845 -10.3891 -5.17263e-07 56.3581 -13.0808 2.09354 -1.00384e-06 69.8573 -1.43742e-06 -6.69737 4.11135 -0.240701 -12.5077 10.704 2.82427e-05 -49.5905 14.2081 8.97888 2.28112e-06 -82.8792 -2.58359e-06 1.22464 4.51825 0.0483016 10.014 -12.1215 -10.261 13.1653 -14.1786 -58.6589 -0 -0 48.1362 -7.27426e-06 -20.9354 -9.85015 -176.256 -1.4411e-05 -12.7399 -11.8007 26.9856 -30.8316 -0 -0 52.9982 -0.000107247 18.0522 -12.3063 -3.97359 -2.16899e-05 -48.6848 
4.8655 78.883 12.396 5.20533 40.6412 26.6826 0 -0 0 3.1746 -11.2881 19.3738 21.6223 -10.3519 1.77023e-05 56.3745 -12.6907 1.90227 -1.01784e-06 69.8904 -7.11266e-07 -6.84427 4.06217 -0.243002 -12.5776 10.7234 2.92531e-05 -50.3286 14.5948 9.11803 4.27785e-06 -82.3294 -4.43443e-06 1.18721 4.44212 0.0460002 9.96479 -12.4881 -10.1422 12.8637 -14.0475 -58.341 -0 -0 48.1561 4.57268e-05 -20.8348 -10.1394 -176.167 2.22078e-06 -12.7081 -11.7773 26.912 -30.4494 -0 -0 52.8108 1.63878e-05 17.9383 -11.4817 -3.68695 1.15841e-05 -49.4602 
5.2123 79.022 12.867 5.40362 40.2547 26.9669 0 -0 0 3.45691 -11.2068 19.2036 21.6375 -10.3226 4.13848e-05 56.4054 -12.3013 1.75396 -1.02107e-06 69.9682 -7.14538e-07 -6.96965 4.01544 -0.244605 -12.6532 10.745 -7.44305e-05 -51.0395 14.9874 9.24622 0 -81.7633 0 1.1445 4.37445 0.0436997 9.92927 -12.8407 -10.0547 12.5645 -13.9067 -58.0403 -0 -0 48.1528 -3.32079e-06 -20.7465 -10.3941 -176.091 1.16918e-06 -12.5974 -11.7427 26.7962 -30.1199 -0 -0 52.6823 9.31775e-06 17.7769 -10.6079 -3.37772 1.28365e-05 -50.2605 
5.5487 79.168 13.33 5.59592 39.8653 27.2636 0 -0 0 3.7273 -11.1329 19.0359 21.6333 -10.2989 2.11027e-05 56.4424 -11.9177 1.6499 -1.02664e-06 70.1014 -7.20186e-07 -7.06443 3.96819 -0.245006 -12.7308 10.7723 -3.92746e-06 -51.7203 15.3803 9.37254 1.49955e-06 -81.2067 -1.28547e-06 1.09742 4.31689 0.041401 9.90175 -13.1772 -10.0022 12.2713 -13.756 -57.7557 -0 -0 48.1243 1.47263e-05 -20.6672 -10.6159 -176.025 1.50106e-05 -12.4122 -11.695 26.6388 -29.8423 -0 -0 52.6149 4.50887e-05 17.5734 -9.69358 -3.05257 2.28771e-05 -51.0281 
5.8741 79.319 13.786 5.77754 39.4736 27.5679 0 -0 0 3.98908 -11.0657 18.8753 21.6119 -10.2788 -7.60892e-05 56.4825 -11.5439 1.59244 -1.03017e-06 70.2866 -1.46345e-06 -7.12172 3.92197 -0.244194 -12.8113 10.8047 1.12018e-05 -52.3665 15.7736 9.50305 1.70267e-06 -80.6615 -2.00553e-06 1.04541 4.27128 0.0390006 9.87507 -13.4915 -9.98125 11.9889 -13.5957 -57.4822 -0 -0 48.0659 2.82705e-05 -20.5932 -10.8077 -175.97 -1.81834e-05 -12.1632 -11.633 26.442 -29.6203 -0 -0 52.6143 4.96706e-05 17.3361 -8.74837 -2.71833 -8.59093e-06 -51.7043 
6.188 79.472 14.237 5.94481 39.0824 27.8733 0 -0 0 4.24412 -11.0032 18.719 21.5744 -10.2609 3.64961e-05 56.5207 -11.184 1.58282 -0 70.531 -0 -7.1373 3.87706 -0.241898 -12.8928 10.8415 -3.50097e-05 -52.9724 16.1671 9.64515 1.90514e-06 -80.1223 -1.60215e-06 0.987892 4.23921 0.0365997 9.8437 -13.7788 -9.9853 11.7205 -13.4271 -57.2149 -0 -0 47.9711 -8.87811e-05 -20.5213 -10.9739 -175.924 1.60786e-05 -11.8762 -11.5561 26.215 -29.4517 -0 -0 52.6792 -6.06183e-06 17.0687 -7.78249 -2.38084 2.10361e-05 -52.2221 
6.4907 79.626 14.682 6.0975 38.6885 28.1802 0 -0 0 4.49144 -10.9422 18.5693 21.5255 -10.2452 -9.45807e-05 56.5509 -10.8416 1.62118 -1.05972e-06 70.8376 -7.53605e-07 -7.10846 3.8333 -0.238202 -12.972 10.8807 4.0591e-05 -53.5365 16.5602 9.80513 1.81749e-06 -79.6052 -1.5144e-06 0.923997 4.22111 0.0340999 9.80219 -14.0367 -10.0025 11.4673 -13.25 -56.9503 -0 -0 47.841 9.16988e-06 -20.4466 -11.1213 -175.887 2.06687e-05 -11.5768 -11.4676 25.9692 -29.3389 -0 -0 52.8128 -2.83841e-05 16.7774 -6.80656 -2.04623 1.96622e-05 -52.5213 
6.7823 79.78 15.124 6.2359 38.295 28.4836 0 -0 0 4.72938 -10.8788 18.4251 21.4681 -10.2317 8.98121e-06 56.5696 -10.5187 1.70925 -0 71.1973 -0 -7.03703 3.79351 -0.233302 -13.0474 10.9193 2.21036e-05 -54.0517 16.9572 9.98927 2.03365e-06 -79.106 -2.46246e-06 0.85079 4.21771 0.0312994 9.74651 -14.2634 -10.0186 11.2292 -13.0672 -56.6825 -0 -0 47.6741 -6.10937e-05 -20.3647 -11.2571 -175.855 3.35352e-06 -11.2984 -11.3711 25.7156 -29.2819 -0 -0 53.0116 -1.41283e-06 16.4645 -5.83091 -1.71984 -1.00818e-05 -52.5698 
7.0652 79.931 15.562 6.36287 37.8945 28.7813 0 -0 0 4.95173 -10.8076 18.2881 21.4107 -10.2213 -2.70313e-05 56.5725 -10.2196 1.84001 -1.09783e-06 71.619 -7.92047e-07 -6.92241 3.74749 -0.226705 -13.114 10.9588 1.24271e-05 -54.5225 17.3487 10.2072 9.68818e-07 -78.6158 -1.18332e-06 0.769999 4.22506 0.0283996 9.67296 -14.4578 -10.0179 11.0032 -12.8832 -56.4077 -0 -0 47.4744 -6.13795e-05 -20.2689 -11.3891 -175.829 7.57313e-06 -11.0621 -11.2727 25.467 -29.2726 -0 -0 53.2723 1.38175e-05 16.137 -4.86898 -1.40686 -1.221e-05 -52.3034 
7.3405 80.079 15.999 6.48094 37.4875 29.0721 0 -0 0 5.15557 -10.7242 18.1595 21.3547 -10.2152 5.75443e-05 56.5536 -9.94433 2.0132 -0 72.0964 -0 -6.77135 3.69814 -0.218899 -13.1679 10.9964 5.90573e-06 -54.9438 17.7389 10.4628 1.14071e-06 -78.1439 -9.26118e-07 0.678491 4.24205 0.0250993 9.57965 -14.62 -9.98504 10.7863 -12.6972 -56.1251 -0 -0 47.2491 2.22998e-05 -20.1565 -11.5244 -175.806 5.90055e-06 -10.8892 -11.178 25.2393 -29.3083 -0 -0 53.5862 5.288e-06 15.8007 -3.93462 -1.11241 -1.72506e-06 -51.7037 
